{"accessors":[{"bufferView":0,"byteOffset":0,"componentType":5126,"count":1950,"max":[0.5,1,0.5],"min":[-0.5,-1,-0.5],"normalized":false,"type":"VEC3"},{"bufferView":1,"byteOffset":0,"componentType":5126,"count":1950,"max":[1,0,1,1],"min":[-1,-0.000022,-1,1],"normalized":false,"type":"VEC4"},{"bufferView":2,"byteOffset":0,"componentType":5126,"count":1950,"max":[1,1,1],"min":[-1,-1,-1],"normalized":false,"type":"VEC3"},{"bufferView":3,"byteOffset":0,"componentType":5126,"count":1950,"max":[1,1],"min":[0,0],"normalized":false,"type":"VEC2"},{"bufferView":4,"byteOffset":0,"componentType":5125,"count":10368,"max":[1949],"min":[0],"normalized":false,"type":"SCALAR"},{"bufferView":5,"byteOffset":0,"componentType":5126,"count":1950,"max":[0.5,1,0.5],"min":[-0.5,-1,-0.5],"normalized":false,"type":"VEC3"},{"bufferView":6,"byteOffset":0,"componentType":5126,"count":1950,"max":[1,0,1,1],"min":[-1,-0.000022,-1,1],"normalized":false,"type":"VEC4"},{"bufferView":7,"byteOffset":0,"componentType":5126,"count":1950,"max":[1,1,1],"min":[-1,-1,-1],"normalized":false,"type":"VEC3"},{"bufferView":8,"byteOffset":0,"componentType":5126,"count":1950,"max":[1,1],"min":[0,0],"normalized":false,"type":"VEC2"},{"bufferView":9,"byteOffset":0,"componentType":5125,"count":10368,"max":[1949],"min":[0],"normalized":false,"type":"SCALAR"},{"bufferView":10,"byteOffset":0,"componentType":5126,"count":1950,"max":[0.5,1,0.5],"min":[-0.5,-1,-0.5],"normalized":false,"type":"VEC3"},{"bufferView":11,"byteOffset":0,"componentType":5126,"count":1950,"max":[1,0,1,1],"min":[-1,-0.000022,-1,1],"normalized":false,"type":"VEC4"},{"bufferView":12,"byteOffset":0,"componentType":5126,"count":1950,"max":[1,1,1],"min":[-1,-1,-1],"normalized":false,"type":"VEC3"},{"bufferView":13,"byteOffset":0,"componentType":5126,"count":1950,"max":[1,1],"min":[0,0],"normalized":false,"type":"VEC2"},{"bufferView":14,"byteOffset":0,"componentType":5125,"count":10368,"max":[1949],"min":[0],"normalized":false,"type":"SCALAR"}],"asset":{"generator":"Godot Engine v4.0.2.stable.official@7a0977ce2c558fe6219f0a14f8bd4d05aea8f019","version":"2.0"},"bufferViews":[{"buffer":0,"byteLength":23400,"byteOffset":0},{"buffer":0,"byteLength":31200,"byteOffset":23400},{"buffer":0,"byteLength":23400,"byteOffset":54600},{"buffer":0,"byteLength":15600,"byteOffset":78000},{"buffer":0,"byteLength":41472,"byteOffset":93600},{"buffer":0,"byteLength":23400,"byteOffset":135072},{"buffer":0,"byteLength":31200,"byteOffset":158472},{"buffer":0,"byteLength":23400,"byteOffset":189672},{"buffer":0,"byteLength":15600,"byteOffset":213072},{"buffer":0,"byteLength":41472,"byteOffset":228672},{"buffer":0,"byteLength":23400,"byteOffset":270144},{"buffer":0,"byteLength":31200,"byteOffset":293544},{"buffer":0,"byteLength":23400,"byteOffset":324744},{"buffer":0,"byteLength":15600,"byteOffset":348144},{"buffer":0,"byteLength":41472,"byteOffset":363744}],"buffers":[{"byteLength":405216,"uri":"Cerveja0.bin"}],"materials":[{"extensions":{},"pbrMetallicRoughness":{"baseColorFactor":[0.99999988079071,0.99999988079071,0.99999988079071,1],"metallicFactor":0,"roughnessFactor":1}},{"extensions":{},"pbrMetallicRoughness":{"baseColorFactor":[0.99999988079071,0.99999988079071,0.99999988079071,1],"metallicFactor":0,"roughnessFactor":1}},{"extensions":{},"pbrMetallicRoughness":{"baseColorFactor":[0.99999988079071,0.99999988079071,0.99999988079071,1],"metallicFactor":0,"roughnessFactor":1}}],"meshes":[{"extras":{"targetNames":[]},"primitives":[{"attributes":{"NORMAL":2,"POSITION":0,"TANGENT":1,"TEXCOORD_0":3},"indices":4,"material":0,"mode":4}]},{"extras":{"targetNames":[]},"primitives":[{"attributes":{"NORMAL":7,"POSITION":5,"TANGENT":6,"TEXCOORD_0":8},"indices":9,"material":1,"mode":4}]},{"extras":{"targetNames":[]},"primitives":[{"attributes":{"NORMAL":12,"POSITION":10,"TANGENT":11,"TEXCOORD_0":13},"indices":14,"material":2,"mode":4}]}],"nodes":[{"children":[1,2,3,4],"extensions":{},"name":"RigidBody3D2"},{"extensions":{},"mesh":0,"name":"MeshInstance3D","scale":[0.0983496010303497,0.0983496010303497,0.0983496010303497],"translation":[0,-0.01737019978464,0]},{"extensions":{},"mesh":1,"name":"MeshInstance3D2","scale":[0.0504011996090412,0.0983494967222214,0.0395089015364647],"translation":[0,0.124309003353119,0]},{"extensions":{},"mesh":2,"name":"MeshInstance3D3","scale":[0.0504011996090412,0.010636099614203,0.0395089015364647],"translation":[0,0.212874993681908,0]},{"extensions":{},"name":"CollisionShape3D","scale":[0.0983496010303497,0.0983496010303497,0.0983496010303497],"translation":[0,0.0593690983951092,0]}],"scene":0,"scenes":[{"nodes":[0]}]}